<?xml version="1.0" standalone="no"?><!-- Generator: Gravit.io --><svg xmlns="http://www.w3.org/2000/svg" xmlns:xlink="http://www.w3.org/1999/xlink" style="isolation:isolate" viewBox="0 0 320.516 224.594" width="320.516" height="224.594"><defs><clipPath id="_clipPath_ull6m5KS0bhJq97mbGo4dQGWokSeGCB1"><rect width="320.516" height="224.594"/></clipPath></defs><g clip-path="url(#_clipPath_ull6m5KS0bhJq97mbGo4dQGWokSeGCB1)"><path d=" M 113.609 17.458 L 153.126 2.956 C 156.601 1.681 160.417 1.681 163.892 2.956 L 203.409 17.458 C 209.562 19.716 213.652 25.573 213.652 32.127 L 213.652 87.045 C 213.652 93.6 209.562 99.457 203.409 101.715 L 163.892 116.216 C 160.417 117.492 156.601 117.492 153.126 116.216 L 113.609 101.715 C 107.456 99.457 103.366 93.6 103.366 87.045 L 103.366 32.127 C 103.366 25.573 107.456 19.716 113.609 17.458 Z " fill="rgb(255,255,255)"/><g transform="matrix(3.304,0,0,3.288,0,127.173)"><text transform="matrix(1,0,0,1,0.474,14.912)" style="font-family:&quot;Ubuntu&quot;;font-weight:700;font-size:16px;font-style:normal;letter-spacing:0.1;fill:#ffffff;stroke:none;">BELLECOUR</text></g><g transform="matrix(1.754,0,0,1.754,97.132,193.143)"><text transform="matrix(1,0,0,1,0,14.912)" style="font-family:&quot;Ubuntu&quot;;font-weight:300;font-size:16px;font-style:normal;letter-spacing:0.1;fill:#ffffff;stroke:none;">BAPTISTE</text></g><path d=" M 177.719 81.418 C 181.756 78.692 184.442 74.09 184.442 68.854 C 184.442 60.997 182.176 56.67 174.703 53.771 C 181.6 49.706 184.47 46.198 184.47 38.34 C 184.47 29.962 177.059 22.832 168.682 22.832 L 153.886 22.832 L 136.655 31 L 152.709 31 L 152.707 31 C 161.085 31 167.875 38.165 167.875 46.543 C 167.875 54.4 161.898 61.141 154.243 61.912 C 161.898 62.684 167.87 69.193 167.87 77.052 C 167.87 85.429 161.014 92.244 152.636 92.244 L 136.047 92.131 L 136.047 42.938" fill="none" vector-effect="non-scaling-stroke" stroke-width="8" stroke="rgb(0,45,72)" stroke-linejoin="miter" stroke-linecap="square" stroke-miterlimit="3"/></g></svg>