<?xml version="1.0" standalone="no"?><!-- Generator: Gravit.io --><svg xmlns="http://www.w3.org/2000/svg" xmlns:xlink="http://www.w3.org/1999/xlink" style="isolation:isolate" viewBox="0 0 90.821 90.821" width="90.821" height="90.821"><defs><clipPath id="_clipPath_K7OGjGntNBNBemJr4fFLP3d0FbXH97xb"><rect width="90.821" height="90.821"/></clipPath></defs><g clip-path="url(#_clipPath_K7OGjGntNBNBemJr4fFLP3d0FbXH97xb)"><path d="M 50.177 1.484 L 89.556 43.548 C 91.325 45.438 91.227 48.408 89.337 50.177 L 47.273 89.556 C 45.383 91.325 42.413 91.227 40.644 89.337 L 1.265 47.273 C -0.504 45.383 -0.406 42.413 1.484 40.644 L 43.548 1.265 C 45.438 -0.504 48.408 -0.406 50.177 1.484 Z" style="stroke:none;fill:#EBEBEB;stroke-miterlimit:10;"/><path d=" M 60.301 21.065 C 60.253 21.649 59.821 22.016 58.812 22.228 L 58.812 44.748 C 61.838 47.338 65.152 49.508 68.66 51.094 C 66.98 52.68 64.722 55.799 63.567 57.863 C 61.934 56.961 60.349 55.907 58.812 54.741 L 58.812 70.496 L 51.51 70.496 L 51.51 47.867 C 49.493 45.541 47.668 43.001 45.987 40.308 C 42.961 54.58 37.195 64.999 29.028 70.496 C 27.876 68.804 25.136 65.897 23.409 64.787 C 28.068 61.933 31.814 57.807 34.65 52.363 C 33.113 50.724 31.144 49.033 29.463 47.764 L 33.161 42.161 C 34.554 43.11 36.139 44.275 37.532 45.438 C 38.54 42.372 39.357 39.04 39.933 35.34 L 34.17 35.34 C 32.345 40.945 29.989 45.967 26.963 49.614 C 25.955 48.187 23.601 45.488 22.16 44.222 C 26.437 39.251 29.271 29.842 30.616 20.325 L 38.591 22.228 C 38.446 22.756 37.966 23.074 37.246 23.074 C 36.91 24.765 36.573 26.457 36.189 28.095 L 42.627 28.095 L 43.828 27.828 L 48.246 29.784 C 48.102 30.207 47.862 30.685 47.574 31 L 47.382 32.588 L 48.631 32.06 C 49.447 33.648 50.408 35.287 51.512 36.82 L 51.512 20.539 L 60.301 21.065 Z " fill="rgb(255,255,255)"/></g></svg>