<?xml version="1.0" standalone="no"?><!-- Generator: Gravit.io --><svg xmlns="http://www.w3.org/2000/svg" xmlns:xlink="http://www.w3.org/1999/xlink" style="isolation:isolate" viewBox="0 0 392.248 50.776" width="392.248" height="50.776"><defs><clipPath id="_clipPath_FRUSlK7gUH7VLvj4s8ypq28epYfQoEhW"><rect width="392.248" height="50.776"/></clipPath></defs><g clip-path="url(#_clipPath_FRUSlK7gUH7VLvj4s8ypq28epYfQoEhW)"><g transform="matrix(1.949,0,0,1.949,59,6.889)"><text transform="matrix(1,0,0,1,0,14.912)" style="font-family:&quot;Ubuntu&quot;;font-weight:700;font-size:16px;font-style:normal;letter-spacing:0.20113187500000151;fill:#002d48;stroke:none;">BELLECOUR </text><text transform="matrix(1,0,0,1,98.711,14.912)" style="font-family:&quot;Ubuntu&quot;;font-weight:300;font-size:16px;font-style:normal;letter-spacing:0.20113187500000151;fill:#002d48;stroke:none;">BAPTISTE</text></g><path d=" M 4.516 6.815 L 21.937 0.422 C 23.47 -0.141 25.152 -0.141 26.684 0.422 L 44.105 6.815 C 46.818 7.81 48.621 10.392 48.621 13.282 L 48.621 37.494 C 48.621 40.383 46.818 42.965 44.105 43.961 L 26.684 50.354 C 25.152 50.916 23.47 50.916 21.937 50.354 L 4.516 43.961 C 1.803 42.965 0 40.383 0 37.494 L 0 13.282 C 0 10.392 1.803 7.81 4.516 6.815 Z " fill="rgb(0,45,72)"/><path d=" M 32.78 35.894 C 34.56 34.693 35.744 32.664 35.744 30.356 C 35.744 26.891 34.745 24.984 31.45 23.706 C 34.491 21.914 35.756 20.367 35.756 16.903 C 35.756 13.209 32.489 10.066 28.796 10.066 L 22.273 10.066 L 14.676 13.667 L 21.753 13.667 L 21.753 13.667 C 25.446 13.667 28.44 16.826 28.44 20.519 C 28.44 23.983 25.805 26.955 22.43 27.295 C 25.805 27.635 28.438 30.505 28.438 33.969 C 28.438 37.663 25.415 40.667 21.721 40.667 L 14.408 40.617 L 14.408 18.93" fill="none" vector-effect="non-scaling-stroke" stroke-width="3.527" stroke="rgb(255,255,255)" stroke-linejoin="miter" stroke-linecap="square" stroke-miterlimit="3"/></g></svg>