<?xml version="1.0" standalone="no"?><!-- Generator: Gravit.io --><svg xmlns="http://www.w3.org/2000/svg" xmlns:xlink="http://www.w3.org/1999/xlink" style="isolation:isolate" viewBox="0 0 392.248 50.776" width="392.248" height="50.776"><defs><clipPath id="_clipPath_SYE0gfUjVm93GlqY8QjYhehjXpL0aQK2"><rect width="392.248" height="50.776"/></clipPath></defs><g clip-path="url(#_clipPath_SYE0gfUjVm93GlqY8QjYhehjXpL0aQK2)"><g transform="matrix(1.949,0,0,1.949,59,6.889)"><text transform="matrix(1,0,0,1,0,14.912)" style="font-family:&quot;Ubuntu&quot;;font-weight:700;font-size:16px;font-style:normal;letter-spacing:0.20113187500000151;fill:#002d48;stroke:none;">BELLECOUR </text><text transform="matrix(1,0,0,1,98.711,14.912)" style="font-family:&quot;Ubuntu&quot;;font-weight:300;font-size:16px;font-style:normal;letter-spacing:0.20113187500000151;fill:#002d48;stroke:none;">BAPTISTE</text></g><path d=" M 4.516 6.815 L 21.937 0.422 C 23.47 -0.141 25.152 -0.141 26.684 0.422 L 44.105 6.815 C 46.818 7.81 48.621 10.392 48.621 13.282 L 48.621 37.494 C 48.621 40.383 46.818 42.965 44.105 43.961 L 26.684 50.354 C 25.152 50.916 23.47 50.916 21.937 50.354 L 4.516 43.961 C 1.803 42.965 0 40.383 0 37.494 L 0 13.282 C 0 10.392 1.803 7.81 4.516 6.815 Z " fill="rgb(0,45,72)"/><path d=" M 31.199 34.809 C 32.792 33.734 33.852 31.918 33.852 29.853 C 33.852 26.752 32.958 25.045 30.01 23.902 C 32.73 22.298 33.863 20.914 33.863 17.814 C 33.863 14.508 30.939 11.695 27.634 11.695 L 21.797 11.695 L 14.998 14.918 L 21.332 14.918 L 21.332 14.918 C 24.637 14.918 27.316 17.745 27.316 21.05 C 27.316 24.15 24.958 26.809 21.937 27.114 C 24.958 27.418 27.314 29.986 27.314 33.087 C 27.314 36.392 24.609 39.08 21.303 39.08 L 14.758 39.036 L 14.758 19.628" fill="none" vector-effect="non-scaling-stroke" stroke-width="3" stroke="rgb(255,255,255)" stroke-linejoin="miter" stroke-linecap="square" stroke-miterlimit="3"/></g></svg>